<?xml version="1.0" encoding="UTF-8"?>
<!DOCTYPE svg PUBLIC "-//W3C//DTD SVG 1.1//EN" "http://www.w3.org/Graphics/SVG/1.1/DTD/svg11.dtd">
<svg xmlns="http://www.w3.org/2000/svg" version="1.1" width="900px" height="900px" style="shape-rendering:geometricPrecision; text-rendering:geometricPrecision; image-rendering:optimizeQuality; fill-rule:evenodd; clip-rule:evenodd" xmlns:xlink="http://www.w3.org/1999/xlink">
<g><path style="opacity:0.99" fill="#029cbb" d="M 64.5,132.5 C 174.167,132.333 283.834,132.5 393.5,133C 424.847,137.509 443.847,155.343 450.5,186.5C 457.153,155.343 476.153,137.509 507.5,133C 617.167,132.333 726.833,132.333 836.5,133C 843.552,134.93 848.052,139.43 850,146.5C 850.667,326.167 850.667,505.833 850,685.5C 848.273,692.228 844.106,696.728 837.5,699C 739.804,699.014 642.137,699.681 544.5,701C 535.602,705.238 529.435,712.071 526,721.5C 521.67,734.152 519.003,747.152 518,760.5C 517.293,762.081 516.46,763.581 515.5,765C 493.92,766.156 472.253,766.656 450.5,766.5C 428.747,766.656 407.08,766.156 385.5,765C 384.54,763.581 383.707,762.081 383,760.5C 381.997,747.152 379.33,734.152 375,721.5C 371.565,712.071 365.398,705.238 356.5,701C 258.863,699.681 161.196,699.014 63.5,699C 56.8938,696.728 52.7271,692.228 51,685.5C 50.3333,505.833 50.3333,326.167 51,146.5C 53.0504,139.347 57.5504,134.68 64.5,132.5 Z M 157.5,234.5 C 223.501,234.333 289.501,234.5 355.5,235C 365.037,238.872 371.537,245.706 375,255.5C 379.33,268.151 381.997,281.151 383,294.5C 383.346,296.848 384.513,298.681 386.5,300C 429.167,300.667 471.833,300.667 514.5,300C 516.487,298.681 517.654,296.848 518,294.5C 518.634,276.637 523.301,259.971 532,244.5C 535.414,239.748 539.914,236.581 545.5,235C 611.5,234.333 677.5,234.333 743.5,235C 746.553,237.051 748.386,239.885 749,243.5C 749.667,358.833 749.667,474.167 749,589.5C 748.242,593.922 745.742,596.755 741.5,598C 660.474,598.02 579.474,598.686 498.5,600C 477.207,604.627 462.707,617.127 455,637.5C 453.599,642.536 452.099,647.536 450.5,652.5C 447.05,634.749 438.384,620.249 424.5,609C 417.612,604.888 410.278,601.888 402.5,600C 320.47,599.011 238.47,598.011 156.5,597C 154.106,595.048 152.606,592.548 152,589.5C 151.333,474.167 151.333,358.833 152,243.5C 152.825,239.844 154.658,236.844 157.5,234.5 Z"/></g>
</svg>
